<?xml version="1.0" encoding="UTF-8" standalone="no"?>
<!-- Created with Inkscape (http://www.inkscape.org/) -->

<svg
   width="879"
   height="169"
   viewBox="0 0 232.56982 44.714866"
   version="1.1"
   id="svg1"
   xml:space="preserve"
   inkscape:version="1.4.3 (0d15f75042, 2025-12-25)"
   sodipodi:docname="stats\.svg"
   xmlns:inkscape="http://www.inkscape.org/namespaces/inkscape"
   xmlns:sodipodi="http://sodipodi.sourceforge.net/DTD/sodipodi-0.dtd"
   xmlns="http://www.w3.org/2000/svg"
   xmlns:svg="http://www.w3.org/2000/svg"><sodipodi:namedview
     id="namedview1"
     pagecolor="#ffffff"
     bordercolor="#000000"
     borderopacity="0.25"
     inkscape:showpageshadow="2"
     inkscape:pageopacity="0.0"
     inkscape:pagecheckerboard="0"
     inkscape:deskcolor="#d1d1d1"
     inkscape:document-units="mm"
     inkscape:zoom="0.46872391"
     inkscape:cx="465.09255"
     inkscape:cy="732.84079"
     inkscape:window-width="1920"
     inkscape:window-height="1006"
     inkscape:window-x="0"
     inkscape:window-y="0"
     inkscape:window-maximized="1"
     inkscape:current-layer="layer1" /><defs
     id="defs1" /><g
     inkscape:label="Layer 1"
     inkscape:groupmode="layer"
     id="layer1"
     transform="translate(-0.22339505,-3.5759631)"><path
       style="fill:#e2e8f0"
       d="m 63.701091,47.073212 c -0.81448,-0.11976 -2.15032,-0.51381 -2.96854,-0.87567 -0.81823,-0.36186 -2.09849,-1.22926 -2.84503,-1.92756 -0.74654,-0.6983 -1.643031,-1.83341 -1.992197,-2.522451 -0.591975,-1.168207 -0.603592,-1.269151 -0.172031,-1.494762 0.254549,-0.133073 1.525588,-0.696131 2.824518,-1.251241 2.22456,-0.950683 2.37821,-0.981201 2.64584,-0.525555 0.15627,0.266056 0.57686,0.841917 0.93464,1.279692 0.35778,0.437775 1.13169,1.014523 1.71979,1.281661 0.5881,0.267139 1.60506,0.488136 2.2599,0.491106 0.65485,0.003 1.59843,-0.202775 2.09686,-0.45721 0.49842,-0.254435 1.02197,-0.652541 1.16344,-0.884679 0.14146,-0.232138 0.1806,-0.727314 0.087,-1.10039 -0.11439,-0.455773 -0.5395,-0.856278 -1.29573,-1.22073 -0.61902,-0.298325 -2.31611,-0.802895 -3.77132,-1.121266 -1.45521,-0.318371 -3.14824,-0.793725 -3.76229,-1.056341 -0.61406,-0.262616 -1.64453,-0.964237 -2.28994,-1.559159 -0.64542,-0.594921 -1.363401,-1.481896 -1.595522,-1.971055 -0.254634,-0.536602 -0.422038,-1.5861 -0.422038,-2.645871 0,-1.209884 0.158067,-2.066329 0.50794,-2.752137 0.27937,-0.547605 0.90445,-1.391465 1.38906,-1.875245 0.48462,-0.483779 1.47644,-1.155155 2.20404,-1.491945 0.72761,-0.33679 2.14185,-0.753222 3.14276,-0.925404 1.02266,-0.175923 2.54586,-0.238675 3.47724,-0.143252 0.91157,0.09339 2.32305,0.398823 3.13662,0.678732 0.81357,0.279909 1.99492,0.863735 2.62521,1.297391 0.6303,0.433656 1.44432,1.244434 1.80894,1.801728 0.36462,0.557295 0.73412,1.205859 0.82111,1.441253 0.12584,0.34052 -0.39104,0.644652 -2.52913,1.48812 l -2.6873,1.06013 -0.97823,-1.007999 c -0.54367,-0.560212 -1.4265,-1.132477 -1.98731,-1.288207 -0.55499,-0.154114 -1.34032,-0.280872 -1.74518,-0.281683 -0.40485,-8.12e-4 -1.11923,0.158675 -1.5875,0.354414 -0.46827,0.19574 -1.01006,0.547214 -1.20398,0.781054 -0.20229,0.243928 -0.27833,0.659148 -0.17837,0.974075 0.0958,0.301902 0.4424,0.724633 0.77018,0.939403 0.32778,0.21477 2.13445,0.78948 4.01483,1.277134 1.88037,0.487654 4.02489,1.194084 4.7656,1.569844 0.7407,0.37576 1.73786,1.128671 2.21591,1.673137 0.47804,0.544465 1.03287,1.381725 1.23295,1.860577 0.20008,0.478852 0.36378,1.624993 0.36378,2.546981 0,1.274071 -0.16475,2.006945 -0.68654,3.05404 -0.3776,0.75774 -1.18516,1.78629 -1.79459,2.28567 -0.60942,0.49937 -1.67579,1.15132 -2.36971,1.44877 -0.69392,0.29745 -1.99972,0.6606 -2.90177,0.807 -0.90206,0.1464 -1.93776,0.25256 -2.30156,0.23591 -0.3638,-0.0166 -1.32784,-0.12825 -2.14231,-0.24801 z m 39.539509,0.02 c -0.60482,-0.12696 -1.61685,-0.48969 -2.24896,-0.80608 -0.6321,-0.31639 -1.605849,-1.00911 -2.163889,-1.53938 -0.55803,-0.53028 -1.26237,-1.44039 -1.56519,-2.02247 -0.36692,-0.705306 -0.59151,-1.743743 -0.67327,-3.113085 -0.11345,-1.899803 -0.0596,-2.182992 0.71452,-3.755394 0.51944,-1.055136 1.23837,-2.018353 1.89406,-2.537672 0.58126,-0.460365 1.678429,-1.077867 2.438159,-1.372227 0.89568,-0.347033 2.26504,-0.579039 3.89487,-0.659892 1.76487,-0.08755 3.05039,0.0015 4.3159,0.298974 0.99129,0.233018 1.8545,0.423668 1.91823,0.423668 0.0637,0 0.11587,-0.33958 0.11587,-0.754623 0,-0.415042 -0.2683,-1.152745 -0.59621,-1.63934 -0.32792,-0.486595 -1.01253,-1.129281 -1.52136,-1.42819 -0.69972,-0.41105 -1.37642,-0.541771 -2.77722,-0.53649 -1.24549,0.0047 -2.13255,0.157965 -2.70841,0.467969 -0.47098,0.253542 -1.27834,0.831524 -1.79415,1.284404 l -0.93782,0.823419 -2.240749,-1.537766 c -1.23241,-0.845772 -2.24075,-1.618962 -2.24075,-1.718202 0,-0.09924 0.59849,-0.740251 1.32998,-1.42447 0.73148,-0.684219 2.070939,-1.590589 2.976559,-2.014157 0.90562,-0.423568 2.57045,-0.913598 3.69961,-1.088956 1.57129,-0.24402 2.58562,-0.247572 4.32281,-0.01514 1.24838,0.167032 2.89866,0.591599 3.66727,0.943484 0.76862,0.351884 1.88567,1.080831 2.48233,1.619883 0.59667,0.539051 1.41582,1.654052 1.82033,2.477779 0.73549,1.497686 0.73549,1.497686 0.81783,10.295082 l 0.0823,8.797402 h -3.19119 -3.19119 v -1.22142 -1.22141 l -1.09209,0.98664 c -0.60065,0.54265 -1.58292,1.20284 -2.18282,1.46709 -0.59989,0.26425 -1.80509,0.54141 -2.67822,0.61592 -0.87312,0.0745 -2.08235,0.0316 -2.68717,-0.0953 z m 5.94094,-5.596687 c 0.78226,-0.378686 1.42935,-0.972461 1.94631,-1.785938 0.50996,-0.802473 0.74819,-1.489708 0.69759,-2.012391 -0.0671,-0.693628 -0.2437,-0.850694 -1.39975,-1.24519 -0.7276,-0.248292 -2.03729,-0.454037 -2.91042,-0.45721 -1.00551,-0.0037 -1.9933,0.178473 -2.69443,0.496794 -0.66326,0.301131 -1.27303,0.823774 -1.52135,1.303966 -0.22793,0.440772 -0.41442,1.051353 -0.41442,1.356848 0,0.305495 0.18009,0.903702 0.4002,1.329348 0.22011,0.425647 0.72612,0.950749 1.12448,1.166893 0.39835,0.216144 1.37129,0.397756 2.16209,0.403582 0.94733,0.007 1.83759,-0.182932 2.6097,-0.556702 z m 39.40105,5.583867 c -0.69631,-0.11707 -2.02069,-0.566 -2.94306,-0.99763 -0.92237,-0.43163 -2.15444,-1.21608 -2.73792,-1.74322 -0.58348,-0.52714 -1.39936,-1.60495 -1.81308,-2.395136 -0.41371,-0.790186 -0.69554,-1.48073 -0.62627,-1.534543 0.0693,-0.05381 1.27599,-0.596655 2.68161,-1.206316 1.40563,-0.609662 2.65578,-1.104129 2.77813,-1.098816 0.12234,0.0053 0.55338,0.532178 0.95787,1.170809 0.472,0.745237 1.14163,1.357788 1.86947,1.710131 0.65626,0.317691 1.65979,0.548983 2.38193,0.548983 0.68633,0 1.6605,-0.172407 2.16483,-0.383127 0.50432,-0.21072 1.04853,-0.671909 1.20935,-1.024865 0.21489,-0.471645 0.2127,-0.790636 -0.008,-1.203509 -0.16536,-0.308974 -0.74315,-0.784363 -1.28399,-1.05642 -0.54084,-0.272056 -2.35256,-0.810597 -4.02605,-1.196755 -1.85163,-0.427266 -3.58794,-1.013701 -4.43555,-1.498103 -0.76607,-0.437797 -1.7422,-1.278265 -2.16919,-1.867705 -0.42699,-0.589441 -0.91643,-1.496164 -1.08764,-2.014941 -0.17664,-0.535244 -0.24747,-1.561597 -0.16374,-2.372839 0.0869,-0.842265 0.43389,-1.918222 0.84452,-2.61891 0.38334,-0.654117 1.17779,-1.537602 1.76545,-1.9633 0.58766,-0.425698 1.70474,-1.012054 2.4824,-1.303014 0.77766,-0.29096 2.17863,-0.607365 3.11327,-0.703121 0.97401,-0.09979 2.47611,-0.04048 3.51918,0.138955 1.00091,0.172182 2.47433,0.610659 3.27427,0.974394 0.79994,0.363735 1.73881,0.922347 2.08638,1.241361 0.34757,0.319013 0.973,1.044372 1.38984,1.611909 0.41684,0.567537 0.75789,1.176154 0.75789,1.352483 0,0.176328 -1.19691,0.814964 -2.65981,1.419191 l -2.65982,1.098593 -0.70268,-0.83508 c -0.38647,-0.459294 -1.18385,-1.053648 -1.77195,-1.320786 -0.5881,-0.267138 -1.46006,-0.488321 -1.93767,-0.491517 -0.47762,-0.0032 -1.25153,0.15434 -1.71979,0.350079 -0.46827,0.19574 -1.01353,0.551381 -1.21168,0.790314 -0.20597,0.248372 -0.2934,0.700874 -0.20412,1.05657 0.0985,0.392609 0.52431,0.780397 1.15402,1.051075 0.54883,0.235911 2.3882,0.784089 4.08748,1.218175 1.69928,0.434085 3.57136,1.035017 4.16016,1.335404 0.58881,0.300386 1.48836,0.963956 1.999,1.4746 0.51065,0.510643 1.12216,1.303049 1.35893,1.760901 0.23676,0.457852 0.49343,1.526764 0.57038,2.37536 0.10182,1.12282 0.01,1.883511 -0.33786,2.793916 -0.26277,0.688059 -0.99548,1.80449 -1.62824,2.48097 -0.69907,0.74735 -1.77845,1.51177 -2.75094,1.94819 -0.88025,0.39504 -2.3369,0.82478 -3.23699,0.955 -0.9001,0.13021 -1.99373,0.22514 -2.43029,0.21095 -0.43656,-0.0142 -1.36346,-0.12159 -2.05977,-0.23866 z m -61.837109,-0.66063 c -0.65484,-0.20333 -1.6412,-0.74286 -2.19192,-1.19896 -0.55071,-0.4561 -1.32462,-1.4423 -1.71979,-2.19156 -0.71755,-1.360506 -0.7186,-1.370902 -0.80141,-7.910734 l -0.0829,-6.548437 h -2.0999 -2.0999 v -2.778125 -2.778125 h 2.11667 2.11666 v -3.571875 -3.571875 h 3.175 3.175 v 3.571875 3.571875 h 2.77813 2.77812 v 2.778125 2.778125 h -2.79325 -2.79326 l 0.0813,5.447377 c 0.0813,5.447378 0.0813,5.447378 0.85074,6.10873 0.62929,0.540881 0.96667,0.637748 1.85208,0.531774 0.59544,-0.07127 1.31395,-0.171056 1.5967,-0.221751 0.43868,-0.07866 0.63805,0.295817 1.35952,2.553661 0.465,1.45521 0.75739,2.74124 0.64975,2.85784 -0.10763,0.1166 -0.83848,0.38308 -1.6241,0.59217 -0.78563,0.20909 -2.26185,0.37329 -3.2805,0.36488 -1.01864,-0.008 -2.38786,-0.18165 -3.04271,-0.38499 z m 43.488169,0.11841 c -0.45625,-0.13223 -1.40608,-0.62751 -2.11072,-1.10061 -0.93661,-0.62886 -1.49624,-1.28179 -2.08087,-2.4278 -0.7997,-1.567605 -0.7997,-1.567605 -0.88288,-8.003648 l -0.0832,-6.436043 h -1.96734 -1.96734 v -2.778125 -2.778125 h 1.98437 1.98438 v -3.571875 -3.571875 h 3.175 3.175 v 3.571875 3.571875 h 2.77812 2.77813 v 2.778125 2.778125 h -2.77813 -2.77812 l 9.9e-4,5.093229 c 8.9e-4,4.596487 0.0517,5.176402 0.52096,5.946024 0.28598,0.469037 0.82284,0.928812 1.19302,1.021721 0.37018,0.09291 0.99895,0.107235 1.39727,0.03184 0.39832,-0.0754 0.96598,-0.214806 1.26147,-0.309793 0.48492,-0.155879 0.61924,0.09304 1.37875,2.55495 0.75398,2.444 0.79826,2.76042 0.4258,3.04271 -0.22863,0.17327 -1.00375,0.44116 -1.7225,0.59531 -0.71875,0.15414 -2.10462,0.26952 -3.07972,0.2564 -0.97511,-0.0131 -2.14621,-0.13206 -2.60246,-0.26429 z m 36.53517,-0.0694 c -0.44377,-0.20136 -1.12364,-0.74258 -1.51082,-1.20271 -0.38718,-0.46013 -0.78148,-1.24982 -0.87623,-1.75486 -0.0947,-0.50504 -0.0947,-1.331469 0,-1.836508 0.0948,-0.505039 0.47937,-1.283222 0.85472,-1.729295 0.37534,-0.446072 1.01953,-0.985358 1.43154,-1.198413 0.412,-0.213055 1.17555,-0.387372 1.69677,-0.387372 0.52122,0 1.33637,0.162404 1.81143,0.360898 0.47506,0.198495 1.1784,0.734842 1.56298,1.191883 0.40222,0.478012 0.77309,1.323521 0.87311,1.990535 0.13009,0.867502 0.0426,1.456412 -0.3475,2.338222 -0.28676,0.64828 -0.90879,1.45454 -1.38229,1.7917 -0.51365,0.36575 -1.3542,0.65114 -2.08387,0.70752 -0.68313,0.0528 -1.57913,-0.0671 -2.02984,-0.2716 z m 11.25791,-8.902868 v -8.995833 h -2.11666 -2.11667 v -2.778125 -2.778125 h 2.08062 2.08061 l 0.13078,-2.500223 c 0.10485,-2.004542 0.27231,-2.7895 0.84466,-3.959341 0.39263,-0.802515 1.24958,-1.930661 1.90432,-2.50699 0.65475,-0.57633 1.74939,-1.241743 2.43254,-1.478698 0.68315,-0.236954 2.016,-0.498666 2.96189,-0.581582 1.17721,-0.103194 2.25788,-0.01281 3.42536,0.286492 0.93806,0.240486 1.74979,0.481466 1.80383,0.535511 0.054,0.05404 -0.28686,1.330444 -0.75757,2.836443 -0.47071,1.505998 -0.88389,2.776197 -0.91818,2.822664 -0.0343,0.04647 -0.55018,-0.06168 -1.14643,-0.240318 -0.84781,-0.254009 -1.315,-0.255622 -2.1435,-0.0074 -0.58267,0.174572 -1.24842,0.605881 -1.47944,0.958463 -0.23102,0.352582 -0.4852,1.35969 -0.56484,2.238017 l -0.14481,1.596959 h 2.94716 2.94717 v 2.778125 2.778125 h -2.91042 -2.91042 v 8.995833 8.995841 h -3.175 -3.175 z m 15.61042,-2.778125 V 23.013821 h 3.04271 3.04271 v 1.576165 1.576165 l 1.20021,-1.283125 c 0.69037,-0.738058 1.78621,-1.541433 2.57969,-1.891203 1.04711,-0.461575 1.88944,-0.61186 3.49614,-0.62377 1.80006,-0.01334 2.34152,0.09473 3.61992,0.722519 0.82679,0.406016 1.85482,1.138619 2.28451,1.628007 0.42969,0.489388 0.83144,1.040371 0.89279,1.224406 0.0683,0.205057 0.59788,-0.151735 1.36767,-0.92152 0.69087,-0.690872 1.93437,-1.572177 2.76333,-1.958456 1.28507,-0.59882 1.85813,-0.701373 3.88844,-0.695864 1.91631,0.0052 2.65442,0.127822 3.78029,0.628022 0.82991,0.368716 1.82604,1.106673 2.44874,1.814097 0.68739,0.780914 1.2319,1.782383 1.57753,2.901416 0.48134,1.558398 0.52782,2.463643 0.52782,10.279969 v 8.571093 h -3.175 -3.175 v -7.681419 c 0,-5.888839 -0.0841,-7.880102 -0.36036,-8.532813 -0.1982,-0.468269 -0.61008,-1.073838 -0.9153,-1.345709 -0.30522,-0.271871 -1.08848,-0.554448 -1.74057,-0.627947 -0.65208,-0.0735 -1.49336,-0.0564 -1.86949,0.038 -0.37613,0.0944 -1.14777,0.590746 -1.71476,1.102985 -0.59039,0.533381 -1.22906,1.463228 -1.49468,2.176098 -0.38491,1.03302 -0.48237,2.403652 -0.57297,8.057775 l -0.10918,6.81302 h -3.15197 -3.15197 l -0.006,-7.60677 c -0.005,-6.900161 -0.0525,-7.709597 -0.50838,-8.713704 -0.30113,-0.663263 -0.82377,-1.273037 -1.30396,-1.521354 -0.44077,-0.227932 -1.29534,-0.414422 -1.89904,-0.414422 -0.60369,0 -1.51863,0.19978 -2.0332,0.443956 -0.53394,0.253375 -1.25025,0.940164 -1.66862,1.599868 -0.4157,0.655491 -0.85843,1.875844 -1.02265,2.818863 -0.15927,0.914623 -0.28959,4.302339 -0.28959,7.528257 v 5.865306 h -3.175 -3.175 z"
       id="path1"
       sodipodi:nodetypes="ssssssssscsscsssssssssssssssscsssssssssssssssscsscsssssssssssssssscsssssssssccccccsssccsscscssssssssssssssssssscsssssssssssssssscssssscsssssscsssssssssscccccccccccccccccccssssssscsssssscccccccccccccccccccsssssssssssssccssssssssssccccccccsssssssssssssccccccccccccccccccssssscssssssscccssssssssccccssssssscccc" /><path
       d="m 4.7551004,46.253312 c -0.311076,-0.12554 -0.75645,-0.50073 -0.98972,-0.83377 -0.374966,-0.53534 -0.424128,-2.04506 -0.424128,-13.024534 0,-10.461413 0.06075,-12.505732 0.385376,-12.969207 0.211958,-0.302611 0.740667,-0.697368 1.174909,-0.877238 0.4989,-0.20665 1.67664,-0.292904 3.199451,-0.234317 2.3391816,0.09 2.4325196,0.118017 3.1798596,0.954639 0.769942,0.861921 0.769942,0.861921 0.769942,13.011431 0,9.99919 -0.06656,12.278236 -0.376094,12.876796 -0.206853,0.40001 -0.687507,0.86918 -1.068121,1.04259 -0.380614,0.17343 -1.7256436,0.3078 -2.9889536,0.29859 -1.263311,-0.009 -2.551445,-0.11943 -2.862521,-0.24498 z m 15.5064256,-0.1066 c -0.346919,-0.19228 -0.788084,-0.63345 -0.980367,-0.98037 -0.280342,-0.5058 -0.351458,-4.197026 -0.358958,-18.631255 -0.0067,-12.916708 0.07551,-18.1867497 0.291143,-18.6600007 0.165272,-0.362731 0.687977,-0.843385 1.161569,-1.06812 0.53787,-0.255235 1.599074,-0.408606 2.827226,-0.408606 1.081384,0 2.343782,0.131643 2.805331,0.292539 0.4694,0.163634 1.010091,0.623046 1.227048,1.042595 0.330152,0.638444 0.387869,3.4448117 0.387869,18.8594007 0,11.915768 -0.09294,18.282997 -0.27175,18.617107 -0.149462,0.27928 -0.61863,0.68715 -1.042595,0.90639 -0.521524,0.2697 -1.522016,0.39561 -3.093299,0.38928 -1.417444,-0.006 -2.568248,-0.14559 -2.953217,-0.35896 z m 15.24272,-0.37826 c -0.887845,-0.79288 -0.887845,-0.79288 -0.956664,-7.611016 -0.05167,-5.118485 0.01506,-6.98261 0.267603,-7.477943 0.185028,-0.362898 0.750447,-0.86747 1.256475,-1.121273 0.625758,-0.313847 1.51104,-0.456825 2.767545,-0.446973 1.016105,0.008 2.263154,0.156242 2.771206,0.329497 0.624812,0.21307 1.075936,0.613941 1.394042,1.238749 0.420771,0.826462 0.462456,1.624934 0.395883,7.582327 -0.07441,6.658582 -0.07441,6.658582 -0.805601,7.389912 -0.689939,0.69006 -0.88552,0.73636 -3.46692,0.82048 -2.721161,0.0887 -2.740463,0.0849 -3.623569,-0.70376 z"
       style="fill:#1db854;stroke-width:0.997513;fill-opacity:1"
       id="path1-6" /></g></svg>
